M48
METRIC,LZ,000.000
;FILE_FORMAT=3:3
;TYPE=PLATED
;Layer: PTH_Through
;EasyEDA v6.5.1, 2022-08-09 23:06:28
;a67cddfb3fce44daa9051d46cbbcc19f,10
;Gerber Generator version 0.2
;Holesize 1 = 0.305 mm
T01C0.305
;Holesize 2 = 0.306 mm
T02C0.306
;Holesize 3 = 0.800 mm
T03C0.800
;Holesize 4 = 0.915 mm
T04C0.915
;Holesize 5 = 1.016 mm
T05C1.016
;Holesize 6 = 1.100 mm
T06C1.100
;Holesize 7 = 1.101 mm
T07C1.101
;Holesize 8 = 1.200 mm
T08C1.200
;Holesize 9 = 1.501 mm
T09C1.501
;Holesize 10 = 1.800 mm
T10C1.800
;Holesize 11 = 3.251 mm
T11C3.251
;Holesize 12 = 3.302 mm
T12C3.302
%
G05
G90
T01
X057000Y025001
X024000Y013500
X022500Y017000
X025001Y017000
X177000Y017000
X153000Y051500
X150000Y115000
X157500Y115500
X181500Y114500
X157500Y114500
X181500Y115480
T02
X001072Y108939
X001072Y088939
X001072Y068939
X001072Y048939
X001072Y028939
X021072Y128939
X021072Y048939
X041072Y128939
X041072Y048939
X041072Y028939
X061072Y108939
X061072Y088939
X061072Y068939
X061072Y048939
X061072Y028939
X081072Y088939
X081072Y068939
X081072Y048939
X081072Y028939
X101072Y088939
X101072Y068939
X101072Y048939
X101072Y028939
X121072Y088939
X121072Y068939
X121072Y048939
X121072Y028939
X141072Y108939
X141072Y088939
X141072Y068939
X141072Y048939
X141072Y028939
X161072Y128939
X161072Y108939
X161072Y088939
X161072Y068939
X161072Y048939
X161072Y028939
X161072Y008939
X181072Y128939
X181072Y108939
X181072Y088939
X181072Y068939
X181072Y048939
T03
X061351Y015276
X061351Y017816
X063891Y015276
X063891Y017816
X066431Y015276
X066431Y017816
X068971Y015276
X068971Y017816
X071511Y015276
X071511Y017816
X074051Y015276
X074051Y017816
X076591Y015276
X076591Y017816
X079131Y015276
X079131Y017816
X081671Y015276
X081671Y017816
X084211Y015276
X084211Y017816
X086751Y015276
X086751Y017816
X089291Y015276
X089291Y017816
X091831Y015276
X091831Y017816
X094371Y015276
X094371Y017816
X096911Y015276
X096911Y017816
X099451Y015276
X099451Y017816
X101991Y015276
X101991Y017816
X104531Y015276
X104531Y017816
X107071Y015276
X107071Y017816
X109611Y015276
X109611Y017816
X112151Y015276
X112151Y017816
X114691Y015276
X114691Y017816
X117231Y015276
X117231Y017816
X119771Y015276
X119771Y017816
X122311Y015276
X122311Y017816
X124851Y015276
X124851Y017816
X127391Y015276
X127391Y017816
X129931Y015276
X129931Y017816
X132471Y015276
X132471Y017816
X135011Y015276
X135011Y017816
X137551Y015276
X137551Y017816
X129931Y012736
X127391Y010196
X124851Y012736
X124851Y010196
X122311Y012736
X122311Y010196
X119771Y012736
X119771Y010196
X117231Y012736
X117231Y010196
X114691Y012736
X114691Y010196
X112151Y012736
X112151Y010196
X109611Y012736
X109611Y010196
X107071Y012736
X107071Y010196
X104531Y012736
X104531Y010196
X101991Y012736
X101991Y010196
X099451Y012736
X099451Y010196
X096911Y012736
X096911Y010196
X094371Y012736
X094371Y010196
X091831Y012736
X091831Y010196
X089291Y012736
X089291Y010196
X086751Y012736
X086751Y010196
X084211Y012736
X084211Y010196
X081671Y012736
X081671Y010196
X140091Y017816
X140091Y015276
X129931Y010196
X127391Y012736
T04
X021430Y008490
X022450Y006710
X023470Y008490
X024490Y006710
X025510Y008490
X026530Y006710
X027550Y008490
X028570Y006710
X031870Y013290
X029570Y013290
X020430Y013290
X018130Y013290
T05
X173175Y010000
X170889Y010000
X168578Y010000
X166292Y010000
X174318Y007460
X172032Y007460
X169746Y007460
X167460Y007460
X175461Y010000
X165149Y007460
X174318Y012540
X172032Y012540
X169746Y012540
X167460Y012540
X165149Y012540
T06
X191270Y066110
X188730Y066110
X191270Y068650
X188730Y068650
X191270Y071190
X188730Y071190
X191270Y073730
X188730Y073730
X191270Y076270
X188730Y076270
X191270Y078810
X188730Y078810
X191270Y081350
X188730Y081350
X191270Y083890
X188730Y083890
X028730Y082080
X031270Y082080
X028730Y079540
X031270Y079540
X028730Y077000
X031270Y077000
X028730Y074460
X031270Y074460
X028730Y071920
X031270Y071920
X028730Y059810
X031270Y059810
X028730Y057270
X031270Y057270
X028730Y054730
X031270Y054730
X028730Y052190
X031270Y052190
X171270Y029920
X168730Y029920
X171270Y032460
X168730Y032460
X171270Y035000
X168730Y035000
X171270Y037540
X168730Y037540
X171270Y040080
X168730Y040080
T07
X030000Y119580
X024480Y119580
X027240Y119580
X032760Y119580
X035520Y119580
X025860Y122420
X028620Y122420
X031380Y122420
X034140Y122420
X031350Y030270
X031350Y027730
X028810Y030270
X028810Y027730
X026270Y030270
X026270Y027730
X023730Y030270
X023730Y027730
X021190Y030270
X021190Y027730
X018650Y030270
X018650Y027730
T08
X043900Y010100G85X041400Y010100
X041400Y003900G85X043900Y003900
X047350Y005850G85X047350Y008350
T09
X012540Y111251
X012540Y098749
X007460Y111251
X007460Y098749
T10
X016950Y007730
X033050Y007730
T11
X042500Y121000
X017500Y121000
T12
X182497Y010000
X157503Y010000
M30
