G04 Layer: TopSilkscreenLayer*
G04 EasyEDA v6.5.1, 2022-08-09 23:06:28*
G04 a67cddfb3fce44daa9051d46cbbcc19f,10*
G04 Gerber Generator version 0.2*
G04 Scale: 100 percent, Rotated: No, Reflected: No *
G04 Dimensions in millimeters *
G04 leading zeros omitted , absolute positions ,4 integer and 5 decimal *
%FSLAX45Y45*%
%MOMM*%

%ADD10C,0.2540*%
%ADD30C,0.2032*%
%ADD31C,0.1524*%
%ADD32C,0.1270*%

%LPD*%
D30*
X19595010Y7199990D02*
G01*
X19788812Y7273904D01*
X19595010Y7347818D02*
G01*
X19788812Y7273904D01*
X19641238Y7547208D02*
G01*
X19622696Y7538064D01*
X19604154Y7519522D01*
X19595010Y7500980D01*
X19595010Y7464150D01*
X19604154Y7445608D01*
X19622696Y7427320D01*
X19641238Y7417922D01*
X19668924Y7408778D01*
X19714898Y7408778D01*
X19742838Y7417922D01*
X19761126Y7427320D01*
X19779668Y7445608D01*
X19788812Y7464150D01*
X19788812Y7500980D01*
X19779668Y7519522D01*
X19761126Y7538064D01*
X19742838Y7547208D01*
X19714898Y7547208D01*
X19714898Y7500980D02*
G01*
X19714898Y7547208D01*
X19595010Y7682082D02*
G01*
X19788812Y7608168D01*
X19595010Y7682082D02*
G01*
X19788812Y7755996D01*
X19724296Y7635854D02*
G01*
X19724296Y7728310D01*
X17595032Y3200006D02*
G01*
X17733462Y3200006D01*
X17761148Y3209150D01*
X17779690Y3227692D01*
X17788834Y3255378D01*
X17788834Y3273920D01*
X17779690Y3301606D01*
X17761148Y3320148D01*
X17733462Y3329292D01*
X17595032Y3329292D01*
X17622718Y3519538D02*
G01*
X17604176Y3500996D01*
X17595032Y3473310D01*
X17595032Y3436480D01*
X17604176Y3408794D01*
X17622718Y3390252D01*
X17641260Y3390252D01*
X17659548Y3399396D01*
X17668946Y3408794D01*
X17678090Y3427336D01*
X17696632Y3482708D01*
X17705776Y3500996D01*
X17714920Y3510394D01*
X17733462Y3519538D01*
X17761148Y3519538D01*
X17779690Y3500996D01*
X17788834Y3473310D01*
X17788834Y3436480D01*
X17779690Y3408794D01*
X17761148Y3390252D01*
X17595032Y3580498D02*
G01*
X17788834Y3580498D01*
X17595032Y3580498D02*
G01*
X17595032Y3663556D01*
X17604176Y3691496D01*
X17613320Y3700640D01*
X17631862Y3709784D01*
X17650404Y3709784D01*
X17668946Y3700640D01*
X17678090Y3691496D01*
X17687234Y3663556D01*
X17687234Y3580498D02*
G01*
X17687234Y3663556D01*
X17696632Y3691496D01*
X17705776Y3700640D01*
X17724318Y3709784D01*
X17752004Y3709784D01*
X17770546Y3700640D01*
X17779690Y3691496D01*
X17788834Y3663556D01*
X17788834Y3580498D01*
X2405092Y6250017D02*
G01*
X2211036Y6250017D01*
X2405092Y6120731D02*
G01*
X2275806Y6250017D01*
X2322034Y6203789D02*
G01*
X2211036Y6120731D01*
X2284950Y6059771D02*
G01*
X2284950Y5949027D01*
X2303492Y5949027D01*
X2322034Y5958171D01*
X2331178Y5967315D01*
X2340322Y5985857D01*
X2340322Y6013543D01*
X2331178Y6032085D01*
X2312636Y6050627D01*
X2284950Y6059771D01*
X2266408Y6059771D01*
X2238722Y6050627D01*
X2220434Y6032085D01*
X2211036Y6013543D01*
X2211036Y5985857D01*
X2220434Y5967315D01*
X2238722Y5949027D01*
X2340322Y5878669D02*
G01*
X2211036Y5823297D01*
X2340322Y5767925D02*
G01*
X2211036Y5823297D01*
X2174206Y5841839D01*
X2155664Y5860127D01*
X2146520Y5878669D01*
X2146520Y5888067D01*
X2405092Y5706965D02*
G01*
X2211036Y5706965D01*
X2312636Y5706965D02*
G01*
X2331178Y5688423D01*
X2340322Y5669881D01*
X2340322Y5642195D01*
X2331178Y5623907D01*
X2312636Y5605365D01*
X2284950Y5595967D01*
X2266408Y5595967D01*
X2238722Y5605365D01*
X2220434Y5623907D01*
X2211036Y5642195D01*
X2211036Y5669881D01*
X2220434Y5688423D01*
X2238722Y5706965D01*
X2340322Y5489033D02*
G01*
X2331178Y5507321D01*
X2312636Y5525863D01*
X2284950Y5535007D01*
X2266408Y5535007D01*
X2238722Y5525863D01*
X2220434Y5507321D01*
X2211036Y5489033D01*
X2211036Y5461347D01*
X2220434Y5442805D01*
X2238722Y5424263D01*
X2266408Y5415119D01*
X2284950Y5415119D01*
X2312636Y5424263D01*
X2331178Y5442805D01*
X2340322Y5461347D01*
X2340322Y5489033D01*
X2340322Y5243161D02*
G01*
X2211036Y5243161D01*
X2312636Y5243161D02*
G01*
X2331178Y5261703D01*
X2340322Y5280245D01*
X2340322Y5307931D01*
X2331178Y5326473D01*
X2312636Y5344761D01*
X2284950Y5354159D01*
X2266408Y5354159D01*
X2238722Y5344761D01*
X2220434Y5326473D01*
X2211036Y5307931D01*
X2211036Y5280245D01*
X2220434Y5261703D01*
X2238722Y5243161D01*
X2340322Y5182201D02*
G01*
X2211036Y5182201D01*
X2284950Y5182201D02*
G01*
X2312636Y5173057D01*
X2331178Y5154515D01*
X2340322Y5136227D01*
X2340322Y5108287D01*
X2405092Y4936583D02*
G01*
X2211036Y4936583D01*
X2312636Y4936583D02*
G01*
X2331178Y4955125D01*
X2340322Y4973667D01*
X2340322Y5001353D01*
X2331178Y5019641D01*
X2312636Y5038183D01*
X2284950Y5047327D01*
X2266408Y5047327D01*
X2238722Y5038183D01*
X2220434Y5019641D01*
X2211036Y5001353D01*
X2211036Y4973667D01*
X2220434Y4955125D01*
X2238722Y4936583D01*
X2035522Y6139273D02*
G01*
X1906236Y6139273D01*
X2007836Y6139273D02*
G01*
X2026378Y6157561D01*
X2035522Y6176103D01*
X2035522Y6203789D01*
X2026378Y6222331D01*
X2007836Y6240873D01*
X1980150Y6250017D01*
X1961608Y6250017D01*
X1933922Y6240873D01*
X1915634Y6222331D01*
X1906236Y6203789D01*
X1906236Y6176103D01*
X1915634Y6157561D01*
X1933922Y6139273D01*
X2035522Y6078313D02*
G01*
X1906236Y6078313D01*
X1998692Y6078313D02*
G01*
X2026378Y6050627D01*
X2035522Y6032085D01*
X2035522Y6004399D01*
X2026378Y5985857D01*
X1998692Y5976713D01*
X1906236Y5976713D01*
X2100292Y5804755D02*
G01*
X1906236Y5804755D01*
X2007836Y5804755D02*
G01*
X2026378Y5823297D01*
X2035522Y5841839D01*
X2035522Y5869525D01*
X2026378Y5888067D01*
X2007836Y5906355D01*
X1980150Y5915753D01*
X1961608Y5915753D01*
X1933922Y5906355D01*
X1915634Y5888067D01*
X1906236Y5869525D01*
X1906236Y5841839D01*
X1915634Y5823297D01*
X1933922Y5804755D01*
X2035522Y5601555D02*
G01*
X1906236Y5601555D01*
X1998692Y5601555D02*
G01*
X2026378Y5573869D01*
X2035522Y5555327D01*
X2035522Y5527641D01*
X2026378Y5509353D01*
X1998692Y5499955D01*
X1906236Y5499955D01*
X1998692Y5499955D02*
G01*
X2026378Y5472269D01*
X2035522Y5453727D01*
X2035522Y5426041D01*
X2026378Y5407753D01*
X1998692Y5398355D01*
X1906236Y5398355D01*
X2035522Y5291167D02*
G01*
X2026378Y5309709D01*
X2007836Y5328251D01*
X1980150Y5337395D01*
X1961608Y5337395D01*
X1933922Y5328251D01*
X1915634Y5309709D01*
X1906236Y5291167D01*
X1906236Y5263481D01*
X1915634Y5245193D01*
X1933922Y5226651D01*
X1961608Y5217507D01*
X1980150Y5217507D01*
X2007836Y5226651D01*
X2026378Y5245193D01*
X2035522Y5263481D01*
X2035522Y5291167D01*
X2035522Y5156547D02*
G01*
X1943320Y5156547D01*
X1915634Y5147149D01*
X1906236Y5128607D01*
X1906236Y5100921D01*
X1915634Y5082633D01*
X1943320Y5054947D01*
X2035522Y5054947D02*
G01*
X1906236Y5054947D01*
X2007836Y4892387D02*
G01*
X2026378Y4901531D01*
X2035522Y4929217D01*
X2035522Y4956903D01*
X2026378Y4984589D01*
X2007836Y4993987D01*
X1989294Y4984589D01*
X1980150Y4966047D01*
X1971006Y4920073D01*
X1961608Y4901531D01*
X1943320Y4892387D01*
X1933922Y4892387D01*
X1915634Y4901531D01*
X1906236Y4929217D01*
X1906236Y4956903D01*
X1915634Y4984589D01*
X1933922Y4993987D01*
X1980150Y4831427D02*
G01*
X1980150Y4720429D01*
X1998692Y4720429D01*
X2017234Y4729827D01*
X2026378Y4738971D01*
X2035522Y4757513D01*
X2035522Y4785199D01*
X2026378Y4803487D01*
X2007836Y4822029D01*
X1980150Y4831427D01*
X1961608Y4831427D01*
X1933922Y4822029D01*
X1915634Y4803487D01*
X1906236Y4785199D01*
X1906236Y4757513D01*
X1915634Y4738971D01*
X1933922Y4720429D01*
X2358758Y7861561D02*
G01*
X2377300Y7870705D01*
X2395842Y7889247D01*
X2404986Y7907535D01*
X2404986Y7944619D01*
X2395842Y7963161D01*
X2377300Y7981449D01*
X2358758Y7990847D01*
X2331072Y7999991D01*
X2285098Y7999991D01*
X2257158Y7990847D01*
X2238870Y7981449D01*
X2220328Y7963161D01*
X2211184Y7944619D01*
X2211184Y7907535D01*
X2220328Y7889247D01*
X2238870Y7870705D01*
X2257158Y7861561D01*
X2404986Y7744975D02*
G01*
X2395842Y7763517D01*
X2377300Y7782059D01*
X2358758Y7791203D01*
X2331072Y7800601D01*
X2285098Y7800601D01*
X2257158Y7791203D01*
X2238870Y7782059D01*
X2220328Y7763517D01*
X2211184Y7744975D01*
X2211184Y7708145D01*
X2220328Y7689603D01*
X2238870Y7671061D01*
X2257158Y7661917D01*
X2285098Y7652773D01*
X2331072Y7652773D01*
X2358758Y7661917D01*
X2377300Y7671061D01*
X2395842Y7689603D01*
X2404986Y7708145D01*
X2404986Y7744975D01*
X2404986Y7591813D02*
G01*
X2211184Y7591813D01*
X2404986Y7591813D02*
G01*
X2211184Y7517899D01*
X2404986Y7443985D02*
G01*
X2211184Y7517899D01*
X2404986Y7443985D02*
G01*
X2211184Y7443985D01*
X2368156Y7383025D02*
G01*
X2377300Y7364483D01*
X2404986Y7336797D01*
X2211184Y7336797D01*
X1254986Y3500010D02*
G01*
X1061184Y3500010D01*
X1254986Y3500010D02*
G01*
X1254986Y3379868D01*
X1162784Y3500010D02*
G01*
X1162784Y3426096D01*
X1061184Y3500010D02*
G01*
X1061184Y3379868D01*
X1254986Y3291222D02*
G01*
X1098014Y3291222D01*
X1070328Y3282078D01*
X1061184Y3263536D01*
X1061184Y3244994D01*
X1190470Y3318908D02*
G01*
X1190470Y3254392D01*
X1254986Y3184034D02*
G01*
X1061184Y3184034D01*
X1153386Y3184034D02*
G01*
X1181072Y3156348D01*
X1190470Y3138060D01*
X1190470Y3110120D01*
X1181072Y3091832D01*
X1153386Y3082434D01*
X1061184Y3082434D01*
X1135098Y3021474D02*
G01*
X1135098Y2910730D01*
X1153386Y2910730D01*
X1171928Y2919874D01*
X1181072Y2929272D01*
X1190470Y2947560D01*
X1190470Y2975500D01*
X1181072Y2993788D01*
X1162784Y3012330D01*
X1135098Y3021474D01*
X1116556Y3021474D01*
X1088870Y3012330D01*
X1070328Y2993788D01*
X1061184Y2975500D01*
X1061184Y2947560D01*
X1070328Y2929272D01*
X1088870Y2910730D01*
X1190470Y2849770D02*
G01*
X1061184Y2849770D01*
X1135098Y2849770D02*
G01*
X1162784Y2840626D01*
X1181072Y2822084D01*
X1190470Y2803542D01*
X1190470Y2775856D01*
X1135098Y2714896D02*
G01*
X1135098Y2604152D01*
X1153386Y2604152D01*
X1171928Y2613296D01*
X1181072Y2622440D01*
X1190470Y2640982D01*
X1190470Y2668668D01*
X1181072Y2687210D01*
X1162784Y2705752D01*
X1135098Y2714896D01*
X1116556Y2714896D01*
X1088870Y2705752D01*
X1070328Y2687210D01*
X1061184Y2668668D01*
X1061184Y2640982D01*
X1070328Y2622440D01*
X1088870Y2604152D01*
X1190470Y2543192D02*
G01*
X1061184Y2543192D01*
X1153386Y2543192D02*
G01*
X1181072Y2515506D01*
X1190470Y2496964D01*
X1190470Y2469278D01*
X1181072Y2450736D01*
X1153386Y2441592D01*
X1061184Y2441592D01*
X1254986Y2352946D02*
G01*
X1098014Y2352946D01*
X1070328Y2343548D01*
X1061184Y2325260D01*
X1061184Y2306718D01*
X1190470Y2380632D02*
G01*
X1190470Y2315862D01*
D31*
X14657781Y5272887D02*
G01*
X14574723Y5272887D01*
X14558975Y5277967D01*
X14553895Y5283301D01*
X14548561Y5293715D01*
X14548561Y5304129D01*
X14553895Y5314289D01*
X14558975Y5319623D01*
X14574723Y5324703D01*
X14585137Y5324703D01*
X14636953Y5238597D02*
G01*
X14642287Y5228183D01*
X14657781Y5212689D01*
X14548561Y5212689D01*
D30*
X6168390Y1997455D02*
G01*
X6172961Y1988312D01*
X6186931Y1974342D01*
X6089904Y1974342D01*
X8200390Y841755D02*
G01*
X8204961Y832612D01*
X8218931Y818642D01*
X8121904Y818642D01*
X14302231Y1528826D02*
G01*
X14205204Y1565655D01*
X14302231Y1528826D02*
G01*
X14205204Y1491742D01*
X14237461Y1551686D02*
G01*
X14237461Y1505712D01*
X14302231Y1819655D02*
G01*
X14205204Y1819655D01*
X14302231Y1819655D02*
G01*
X14302231Y1778000D01*
X14297406Y1764284D01*
X14292834Y1759712D01*
X14283690Y1754886D01*
X14274545Y1754886D01*
X14265147Y1759712D01*
X14260575Y1764284D01*
X14256004Y1778000D01*
X14256004Y1819655D02*
G01*
X14256004Y1778000D01*
X14251431Y1764284D01*
X14246606Y1759712D01*
X14237461Y1754886D01*
X14223745Y1754886D01*
X14214347Y1759712D01*
X14209775Y1764284D01*
X14205204Y1778000D01*
X14205204Y1819655D01*
X13263118Y1242313D02*
G01*
X13272261Y1246886D01*
X13281406Y1256284D01*
X13286231Y1265428D01*
X13286231Y1283970D01*
X13281406Y1293113D01*
X13272261Y1302512D01*
X13263118Y1307084D01*
X13249147Y1311655D01*
X13226034Y1311655D01*
X13212318Y1307084D01*
X13202920Y1302512D01*
X13193775Y1293113D01*
X13189204Y1283970D01*
X13189204Y1265428D01*
X13193775Y1256284D01*
X13202920Y1246886D01*
X13212318Y1242313D01*
X13286231Y1057655D02*
G01*
X13189204Y1057655D01*
X13286231Y1057655D02*
G01*
X13286231Y1025397D01*
X13281406Y1011428D01*
X13272261Y1002284D01*
X13263118Y997712D01*
X13249147Y992886D01*
X13226034Y992886D01*
X13212318Y997712D01*
X13202920Y1002284D01*
X13193775Y1011428D01*
X13189204Y1025397D01*
X13189204Y1057655D01*
D31*
X18402007Y7499873D02*
G01*
X18511227Y7499873D01*
X18402007Y7499873D02*
G01*
X18402007Y7546609D01*
X18407341Y7562357D01*
X18412421Y7567437D01*
X18422835Y7572517D01*
X18438329Y7572517D01*
X18448743Y7567437D01*
X18454077Y7562357D01*
X18459157Y7546609D01*
X18459157Y7499873D01*
X18422835Y7606807D02*
G01*
X18417755Y7617221D01*
X18402007Y7632969D01*
X18511227Y7632969D01*
X2498806Y1611619D02*
G01*
X2498806Y1502653D01*
X2498806Y1611619D02*
G01*
X2545542Y1611619D01*
X2561036Y1606539D01*
X2566370Y1601205D01*
X2571450Y1590791D01*
X2571450Y1580377D01*
X2566370Y1569963D01*
X2561036Y1564883D01*
X2545542Y1559803D01*
X2498806Y1559803D01*
X2535128Y1559803D02*
G01*
X2571450Y1502653D01*
X2657810Y1611619D02*
G01*
X2657810Y1528561D01*
X2652476Y1512813D01*
X2647396Y1507733D01*
X2636982Y1502653D01*
X2626568Y1502653D01*
X2616154Y1507733D01*
X2611074Y1512813D01*
X2605740Y1528561D01*
X2605740Y1538975D01*
X2692100Y1590791D02*
G01*
X2702514Y1596125D01*
X2718008Y1611619D01*
X2718008Y1502653D01*
X16999999Y-918715D02*
G01*
X16999999Y-840737D01*
X16994919Y-825243D01*
X16984505Y-814829D01*
X16968757Y-809749D01*
X16958343Y-809749D01*
X16942849Y-814829D01*
X16932435Y-825243D01*
X16927355Y-840737D01*
X16927355Y-918715D01*
X16893065Y-897887D02*
G01*
X16882651Y-903221D01*
X16866903Y-918715D01*
X16866903Y-809749D01*
X1215316Y12200001D02*
G01*
X1106350Y12200001D01*
X1215316Y12200001D02*
G01*
X1215316Y12163679D01*
X1210236Y12147930D01*
X1199822Y12137770D01*
X1189408Y12132437D01*
X1173660Y12127356D01*
X1147752Y12127356D01*
X1132258Y12132437D01*
X1121844Y12137770D01*
X1111430Y12147930D01*
X1106350Y12163679D01*
X1106350Y12200001D01*
X1215316Y12093067D02*
G01*
X1106350Y12093067D01*
X1215316Y12093067D02*
G01*
X1215316Y12046330D01*
X1210236Y12030583D01*
X1204902Y12025503D01*
X1194488Y12020169D01*
X1184074Y12020169D01*
X1173660Y12025503D01*
X1168580Y12030583D01*
X1163500Y12046330D01*
X1163500Y12093067D02*
G01*
X1163500Y12046330D01*
X1158166Y12030583D01*
X1153086Y12025503D01*
X1142672Y12020169D01*
X1126924Y12020169D01*
X1116510Y12025503D01*
X1111430Y12030583D01*
X1106350Y12046330D01*
X1106350Y12093067D01*
X1194488Y11985879D02*
G01*
X1199822Y11975464D01*
X1215316Y11959970D01*
X1106350Y11959970D01*
D32*
X2313680Y11950611D02*
G01*
X2273294Y11950611D01*
X2269230Y11914289D01*
X2273294Y11918353D01*
X2285232Y11922417D01*
X2297424Y11922417D01*
X2309616Y11918353D01*
X2317744Y11910225D01*
X2321808Y11898033D01*
X2321808Y11889905D01*
X2317744Y11877967D01*
X2309616Y11869839D01*
X2297424Y11865775D01*
X2285232Y11865775D01*
X2273294Y11869839D01*
X2269230Y11873903D01*
X2265166Y11882031D01*
X3679946Y11944515D02*
G01*
X3688074Y11948579D01*
X3700012Y11960771D01*
X3700012Y11875935D01*
X3718300Y12253379D02*
G01*
X3714236Y12261507D01*
X3702044Y12265571D01*
X3693916Y12265571D01*
X3681978Y12261507D01*
X3673850Y12249315D01*
X3669786Y12229249D01*
X3669786Y12208929D01*
X3673850Y12192927D01*
X3681978Y12184799D01*
X3693916Y12180735D01*
X3697980Y12180735D01*
X3710172Y12184799D01*
X3718300Y12192927D01*
X3722364Y12204865D01*
X3722364Y12208929D01*
X3718300Y12221121D01*
X3710172Y12229249D01*
X3697980Y12233313D01*
X3693916Y12233313D01*
X3681978Y12229249D01*
X3673850Y12221121D01*
X3669786Y12208929D01*
X2315204Y12222137D02*
G01*
X2311140Y12209945D01*
X2303012Y12201817D01*
X2290820Y12197753D01*
X2286756Y12197753D01*
X2274818Y12201817D01*
X2266690Y12209945D01*
X2262626Y12222137D01*
X2262626Y12226201D01*
X2266690Y12238139D01*
X2274818Y12246267D01*
X2286756Y12250331D01*
X2290820Y12250331D01*
X2303012Y12246267D01*
X2311140Y12238139D01*
X2315204Y12222137D01*
X2315204Y12201817D01*
X2311140Y12181751D01*
X2303012Y12169559D01*
X2290820Y12165495D01*
X2282692Y12165495D01*
X2270754Y12169559D01*
X2266690Y12177687D01*
D31*
X3641671Y328246D02*
G01*
X3750637Y328246D01*
X3641671Y328246D02*
G01*
X3641671Y364568D01*
X3646751Y380316D01*
X3657165Y390476D01*
X3667579Y395810D01*
X3683327Y400890D01*
X3709235Y400890D01*
X3724729Y395810D01*
X3735143Y390476D01*
X3745557Y380316D01*
X3750637Y364568D01*
X3750637Y328246D01*
X3667579Y513158D02*
G01*
X3657165Y508078D01*
X3646751Y497664D01*
X3641671Y487250D01*
X3641671Y466422D01*
X3646751Y456008D01*
X3657165Y445594D01*
X3667579Y440514D01*
X3683327Y435180D01*
X3709235Y435180D01*
X3724729Y440514D01*
X3735143Y445594D01*
X3745557Y456008D01*
X3750637Y466422D01*
X3750637Y487250D01*
X3745557Y497664D01*
X3735143Y508078D01*
X3724729Y513158D01*
X3662499Y547448D02*
G01*
X3657165Y557862D01*
X3641671Y573356D01*
X3750637Y573356D01*
X1750316Y10525399D02*
G01*
X1641350Y10525399D01*
X1750316Y10452755D02*
G01*
X1677672Y10525399D01*
X1703580Y10499491D02*
G01*
X1641350Y10452755D01*
X1750316Y10418465D02*
G01*
X1641350Y10418465D01*
X1750316Y10418465D02*
G01*
X1750316Y10350901D01*
X1698500Y10418465D02*
G01*
X1698500Y10376809D01*
X1641350Y10418465D02*
G01*
X1641350Y10350901D01*
X1750316Y10316611D02*
G01*
X1698500Y10274955D01*
X1641350Y10274955D01*
X1750316Y10233299D02*
G01*
X1698500Y10274955D01*
X1729488Y10199009D02*
G01*
X1734822Y10188849D01*
X1750316Y10173101D01*
X1641350Y10173101D01*
X3597917Y7725399D02*
G01*
X3488951Y7725399D01*
X3597917Y7725399D02*
G01*
X3597917Y7678663D01*
X3592837Y7663169D01*
X3587503Y7657835D01*
X3577089Y7652755D01*
X3561595Y7652755D01*
X3551181Y7657835D01*
X3546101Y7663169D01*
X3540767Y7678663D01*
X3540767Y7725399D01*
X3597917Y7608051D02*
G01*
X3597917Y7550901D01*
X3556261Y7581889D01*
X3556261Y7566395D01*
X3551181Y7555981D01*
X3546101Y7550901D01*
X3530353Y7545567D01*
X3519939Y7545567D01*
X3504445Y7550901D01*
X3494031Y7561315D01*
X3488951Y7576809D01*
X3488951Y7592303D01*
X3494031Y7608051D01*
X3499111Y7613131D01*
X3509525Y7618465D01*
X3597917Y5600001D02*
G01*
X3488951Y5600001D01*
X3597917Y5600001D02*
G01*
X3597917Y5553265D01*
X3592837Y5537771D01*
X3587503Y5532437D01*
X3577089Y5527357D01*
X3561595Y5527357D01*
X3551181Y5532437D01*
X3546101Y5537771D01*
X3540767Y5553265D01*
X3540767Y5600001D01*
X3597917Y5430583D02*
G01*
X3597917Y5482653D01*
X3551181Y5487733D01*
X3556261Y5482653D01*
X3561595Y5466905D01*
X3561595Y5451411D01*
X3556261Y5435917D01*
X3546101Y5425503D01*
X3530353Y5420169D01*
X3519939Y5420169D01*
X3504445Y5425503D01*
X3494031Y5435917D01*
X3488951Y5451411D01*
X3488951Y5466905D01*
X3494031Y5482653D01*
X3499111Y5487733D01*
X3509525Y5493067D01*
X2525400Y2302083D02*
G01*
X2525400Y2411049D01*
X2525400Y2302083D02*
G01*
X2478664Y2302083D01*
X2463170Y2307163D01*
X2457836Y2312497D01*
X2452756Y2322911D01*
X2452756Y2338405D01*
X2457836Y2348819D01*
X2463170Y2353899D01*
X2478664Y2359233D01*
X2525400Y2359233D01*
X2355982Y2317577D02*
G01*
X2361316Y2307163D01*
X2376810Y2302083D01*
X2387224Y2302083D01*
X2402718Y2307163D01*
X2413132Y2322911D01*
X2418466Y2348819D01*
X2418466Y2374727D01*
X2413132Y2395555D01*
X2402718Y2405969D01*
X2387224Y2411049D01*
X2381890Y2411049D01*
X2366396Y2405969D01*
X2355982Y2395555D01*
X2350902Y2380061D01*
X2350902Y2374727D01*
X2355982Y2359233D01*
X2366396Y2348819D01*
X2381890Y2343739D01*
X2387224Y2343739D01*
X2402718Y2348819D01*
X2413132Y2359233D01*
X2418466Y2374727D01*
X16402083Y3474600D02*
G01*
X16511049Y3474600D01*
X16402083Y3474600D02*
G01*
X16402083Y3521336D01*
X16407163Y3536830D01*
X16412497Y3542164D01*
X16422911Y3547244D01*
X16438405Y3547244D01*
X16448819Y3542164D01*
X16453899Y3536830D01*
X16459233Y3521336D01*
X16459233Y3474600D01*
X16402083Y3654432D02*
G01*
X16511049Y3602362D01*
X16402083Y3581534D02*
G01*
X16402083Y3654432D01*
X17825466Y11671960D02*
G01*
X17825466Y11749938D01*
X17820386Y11765432D01*
X17809972Y11775846D01*
X17794224Y11780926D01*
X17783809Y11780926D01*
X17768316Y11775846D01*
X17757902Y11765432D01*
X17752822Y11749938D01*
X17752822Y11671960D01*
X17645634Y11687454D02*
G01*
X17656048Y11677040D01*
X17671795Y11671960D01*
X17692370Y11671960D01*
X17708118Y11677040D01*
X17718531Y11687454D01*
X17718531Y11697868D01*
X17713198Y11708282D01*
X17708118Y11713616D01*
X17697704Y11718696D01*
X17666461Y11729110D01*
X17656048Y11734190D01*
X17650968Y11739524D01*
X17645634Y11749938D01*
X17645634Y11765432D01*
X17656048Y11775846D01*
X17671795Y11780926D01*
X17692370Y11780926D01*
X17708118Y11775846D01*
X17718531Y11765432D01*
X17611343Y11671960D02*
G01*
X17611343Y11780926D01*
X17611343Y11671960D02*
G01*
X17564608Y11671960D01*
X17549113Y11677040D01*
X17543779Y11682374D01*
X17538700Y11692788D01*
X17538700Y11703202D01*
X17543779Y11713616D01*
X17549113Y11718696D01*
X17564608Y11723776D01*
X17611343Y11723776D02*
G01*
X17564608Y11723776D01*
X17549113Y11729110D01*
X17543779Y11734190D01*
X17538700Y11744604D01*
X17538700Y11760352D01*
X17543779Y11770766D01*
X17549113Y11775846D01*
X17564608Y11780926D01*
X17611343Y11780926D01*
X17504409Y11692788D02*
G01*
X17493995Y11687454D01*
X17478502Y11671960D01*
X17478502Y11780926D01*
X15425465Y11671960D02*
G01*
X15425465Y11749938D01*
X15420385Y11765432D01*
X15409971Y11775846D01*
X15394223Y11780926D01*
X15383809Y11780926D01*
X15368315Y11775846D01*
X15357901Y11765432D01*
X15352821Y11749938D01*
X15352821Y11671960D01*
X15245633Y11687454D02*
G01*
X15256047Y11677040D01*
X15271795Y11671960D01*
X15292369Y11671960D01*
X15308117Y11677040D01*
X15318531Y11687454D01*
X15318531Y11697868D01*
X15313197Y11708282D01*
X15308117Y11713616D01*
X15297703Y11718696D01*
X15266461Y11729110D01*
X15256047Y11734190D01*
X15250967Y11739524D01*
X15245633Y11749938D01*
X15245633Y11765432D01*
X15256047Y11775846D01*
X15271795Y11780926D01*
X15292369Y11780926D01*
X15308117Y11775846D01*
X15318531Y11765432D01*
X15211343Y11671960D02*
G01*
X15211343Y11780926D01*
X15211343Y11671960D02*
G01*
X15164607Y11671960D01*
X15149113Y11677040D01*
X15143779Y11682374D01*
X15138699Y11692788D01*
X15138699Y11703202D01*
X15143779Y11713616D01*
X15149113Y11718696D01*
X15164607Y11723776D01*
X15211343Y11723776D02*
G01*
X15164607Y11723776D01*
X15149113Y11729110D01*
X15143779Y11734190D01*
X15138699Y11744604D01*
X15138699Y11760352D01*
X15143779Y11770766D01*
X15149113Y11775846D01*
X15164607Y11780926D01*
X15211343Y11780926D01*
X15099075Y11697868D02*
G01*
X15099075Y11692788D01*
X15093995Y11682374D01*
X15088915Y11677040D01*
X15078501Y11671960D01*
X15057673Y11671960D01*
X15047259Y11677040D01*
X15041925Y11682374D01*
X15036845Y11692788D01*
X15036845Y11703202D01*
X15041925Y11713616D01*
X15052339Y11729110D01*
X15104409Y11780926D01*
X15031765Y11780926D01*
D10*
X5500115Y511555D02*
G01*
X5500115Y10100055D01*
X14517116Y10100055D01*
X14517116Y511555D01*
X5500115Y511555D01*
X6008115Y1451355D02*
G01*
X6058915Y1451355D01*
X6058915Y1400555D01*
X6008115Y1908555D02*
G01*
X6008115Y1400555D01*
X8040115Y1400555D01*
X8040115Y892555D01*
X13120116Y892555D01*
X13120116Y1400555D01*
X14136116Y1400555D01*
X14136116Y1908555D01*
X6008115Y1908555D01*
X18547880Y8927480D02*
G01*
X19447878Y8927480D01*
X18670663Y8787780D02*
G01*
X19327660Y8787780D01*
X18547880Y6077854D02*
G01*
X18547880Y8927988D01*
X19447878Y6075060D02*
G01*
X18547880Y6075060D01*
X19327660Y6217300D02*
G01*
X18670663Y6217300D01*
X19449580Y6080394D02*
G01*
X19449580Y8929994D01*
X18669800Y6218163D02*
G01*
X18669800Y8788008D01*
X19317500Y6321440D02*
G01*
X19254000Y6384940D01*
X19322580Y6453520D01*
X19325120Y6453520D01*
X19231140Y7240920D02*
G01*
X19447040Y7240920D01*
X19226060Y7240920D02*
G01*
X19226060Y7761620D01*
X19447040Y7761620D01*
X19449580Y7764160D01*
X19330200Y6217300D02*
G01*
X19330200Y7238380D01*
X19327660Y7240920D01*
X19332740Y7764160D02*
G01*
X19330200Y7764160D01*
X19330200Y8787780D01*
X3312807Y920910D02*
G01*
X3312807Y1457203D01*
X1687207Y1457203D01*
X3312807Y438376D02*
G01*
X3312807Y625096D01*
X1687207Y395632D02*
G01*
X1687207Y-130296D01*
X3312807Y-130296D01*
X3312807Y395632D01*
X1687207Y625096D02*
G01*
X1687207Y438376D01*
X1687207Y1457203D02*
G01*
X1687207Y920910D01*
X18539239Y1457200D02*
G01*
X18539239Y253240D01*
X15460759Y1457200D02*
G01*
X15460759Y253240D01*
X18539239Y1457200D02*
G01*
X15460759Y1457200D01*
X4440001Y13049999D02*
G01*
X4440001Y13620003D01*
X4040002Y13620003D01*
X4040002Y13049999D01*
X1543044Y13049973D02*
G01*
X1557218Y13049973D01*
X1557218Y13607605D01*
X1953991Y13607605D01*
X4540016Y13049999D02*
G01*
X4540016Y11799989D01*
X1460012Y11799989D01*
X1460012Y13049999D01*
X1537863Y13049999D01*
X4540016Y13049999D01*
X1957009Y13049999D02*
G01*
X1957003Y13605797D01*
X3000509Y13577999D02*
G01*
X3000509Y13647999D01*
X2163008Y13049999D02*
G01*
X2163008Y13650000D01*
X3838008Y13650000D01*
X3838008Y13049999D01*
X4714976Y-379989D02*
G01*
X3814975Y-379991D01*
X3814975Y-379991D02*
G01*
X3814975Y1060046D01*
X4714974Y-9954D02*
G01*
X3814975Y-9954D01*
X4584976Y-1953D02*
G01*
X4584976Y1060046D01*
X3944998Y-1953D02*
G01*
X3944998Y1060046D01*
X3814975Y1060046D02*
G01*
X4022537Y1060046D01*
X4507438Y1060046D02*
G01*
X4714976Y1060046D01*
X4714976Y-379989D02*
G01*
X4714976Y458541D01*
X4714976Y961476D02*
G01*
X4714976Y1060046D01*
X1599999Y10999998D02*
G01*
X1599999Y10000000D01*
X400001Y10000000D02*
G01*
X400001Y10999998D01*
X1485140Y11030859D02*
G01*
X1533400Y10982599D01*
X1599440Y11000379D02*
G01*
X1500380Y11099439D01*
X1599440Y9999619D02*
G01*
X1500380Y9900559D01*
X499620Y11099439D02*
G01*
X400560Y11000379D01*
X499620Y9900559D02*
G01*
X400560Y9999619D01*
X1500380Y9900559D02*
G01*
X1384614Y9900559D01*
X1123386Y9900559D02*
G01*
X876614Y9900559D01*
X615386Y9900559D02*
G01*
X499620Y9900559D01*
X1533400Y10982599D02*
G01*
X1533400Y10017399D01*
X1485140Y9969139D01*
X1485140Y9969139D02*
G01*
X1347911Y9969139D01*
X1160089Y9969139D02*
G01*
X839911Y9969139D01*
X652089Y9969139D02*
G01*
X514860Y9969139D01*
X514860Y9969139D02*
G01*
X466600Y10017399D01*
X466600Y10982599D01*
X514860Y11030859D01*
X1485140Y11030859D02*
G01*
X1347911Y11030859D01*
X1160089Y11030859D02*
G01*
X839911Y11030859D01*
X652089Y11030859D02*
G01*
X505917Y11030859D01*
X1500380Y11099439D02*
G01*
X1384614Y11099439D01*
X1123386Y11099439D02*
G01*
X876614Y11099439D01*
X615386Y11099439D02*
G01*
X498350Y11099439D01*
X2733301Y7953999D02*
G01*
X2555501Y7953999D01*
X2563121Y7948919D01*
X2733301Y7953999D02*
G01*
X2733301Y7445999D01*
X2558041Y7445999D01*
X2563121Y7445999D01*
X3440005Y8715009D02*
G01*
X3440005Y6685015D01*
X2559997Y6685015D01*
X2559997Y8715009D01*
X3440005Y8715009D01*
X3452121Y6514147D02*
G01*
X3452121Y4680013D01*
X3450419Y4680521D02*
G01*
X2550421Y4680521D01*
X3329338Y4817681D02*
G01*
X2672341Y4817681D01*
X2552123Y6516941D02*
G01*
X3452121Y6516941D01*
X2672341Y6374701D02*
G01*
X3329338Y6374701D01*
X2550421Y6514401D02*
G01*
X2550421Y4680800D01*
X3330201Y6373837D02*
G01*
X3330201Y4819992D01*
X2682501Y6270561D02*
G01*
X2746001Y6207061D01*
X2677421Y6138481D01*
X2674881Y6138481D01*
X2766321Y5780341D02*
G01*
X2550421Y5780341D01*
X2773941Y5782881D02*
G01*
X2773941Y5414581D01*
X2550421Y5414581D01*
X2550421Y5333301D01*
X2669801Y6377241D02*
G01*
X2669801Y5782881D01*
X2669801Y5412041D02*
G01*
X2669801Y4817681D01*
X1358000Y2460002D02*
G01*
X1357998Y3339998D01*
X1472999Y2570109D02*
G01*
X1472999Y3230001D01*
X3642001Y2460000D02*
G01*
X1358000Y2460000D01*
X3641999Y3339998D02*
G01*
X3642001Y2460000D01*
X3527000Y3229998D02*
G01*
X3527000Y2569997D01*
X3527000Y2569997D02*
G01*
X1472999Y2569997D01*
X2274994Y3230001D02*
G01*
X1472996Y3230001D01*
X3527000Y3230001D02*
G01*
X2725003Y3230001D01*
X3642001Y3339998D02*
G01*
X1358000Y3339998D01*
X2274996Y3153999D02*
G01*
X2274999Y3339998D01*
X2725003Y3153999D02*
G01*
X2725003Y3339998D01*
X2725003Y3153999D02*
G01*
X2274996Y3153999D01*
X17266699Y3246000D02*
G01*
X17444499Y3246000D01*
X17436879Y3251080D01*
X17266699Y3246000D02*
G01*
X17266699Y3754000D01*
X17441959Y3754000D01*
X17436879Y3754000D01*
X16559994Y2484991D02*
G01*
X16559994Y4514984D01*
X17440003Y4514984D01*
X17440003Y2484991D01*
X16559994Y2484991D01*
X17376902Y12053862D02*
G01*
X17223066Y12053862D01*
X17626901Y12053862D02*
G01*
X17523129Y12053862D01*
X17826901Y12053862D02*
G01*
X17773129Y12053862D01*
X18076900Y12053862D02*
G01*
X17973128Y12053862D01*
X18376836Y12053862D02*
G01*
X18223128Y12053862D01*
X18459043Y12609474D02*
G01*
X18459043Y12533175D01*
X17139056Y12609474D02*
G01*
X17139056Y12533175D01*
X17270831Y12782194D02*
G01*
X17305629Y13355853D01*
X17594148Y13355370D01*
X17643652Y12781864D01*
X17592776Y12782245D01*
X17541748Y13236270D01*
X17534229Y13304088D01*
X17359249Y13303021D01*
X17311852Y12825196D01*
X17308855Y12782194D01*
X17270831Y12782194D01*
X17953710Y12775311D02*
G01*
X17989270Y13349351D01*
X18278830Y13349351D01*
X18327090Y12775311D01*
X18276290Y12775311D01*
X18225770Y13288822D01*
X18050738Y13288822D01*
X17991810Y12775311D01*
X17953710Y12775311D01*
X18248528Y13001828D02*
G01*
X18022519Y13001828D01*
X18234533Y13122833D02*
G01*
X18031536Y13122833D01*
X17560416Y13011734D02*
G01*
X17334407Y13011734D01*
X17546421Y13132739D02*
G01*
X17343424Y13132739D01*
X18459043Y13421283D02*
G01*
X17139056Y13421283D01*
X18459043Y13421283D02*
G01*
X18459043Y12609474D01*
X17139056Y13421283D02*
G01*
X17139056Y12609474D01*
X14976901Y12053862D02*
G01*
X14823066Y12053862D01*
X15226901Y12053862D02*
G01*
X15123129Y12053862D01*
X15426900Y12053862D02*
G01*
X15373129Y12053862D01*
X15676900Y12053862D02*
G01*
X15573128Y12053862D01*
X15976836Y12053862D02*
G01*
X15823128Y12053862D01*
X16059043Y12609474D02*
G01*
X16059043Y12533175D01*
X14739056Y12609474D02*
G01*
X14739056Y12533175D01*
X14870831Y12782194D02*
G01*
X14905629Y13355853D01*
X15194147Y13355370D01*
X15243652Y12781864D01*
X15192776Y12782245D01*
X15141747Y13236270D01*
X15134229Y13304088D01*
X14959248Y13303021D01*
X14911852Y12825196D01*
X14908855Y12782194D01*
X14870831Y12782194D01*
X15553710Y12775311D02*
G01*
X15589270Y13349351D01*
X15878830Y13349351D01*
X15927090Y12775311D01*
X15876290Y12775311D01*
X15825769Y13288822D01*
X15650738Y13288822D01*
X15591810Y12775311D01*
X15553710Y12775311D01*
X15848528Y13001828D02*
G01*
X15622518Y13001828D01*
X15834532Y13122833D02*
G01*
X15631535Y13122833D01*
X15160416Y13011734D02*
G01*
X14934407Y13011734D01*
X15146421Y13132739D02*
G01*
X14943424Y13132739D01*
X16059043Y13421283D02*
G01*
X14739056Y13421283D01*
X16059043Y13421283D02*
G01*
X16059043Y12609474D01*
X14739056Y13421283D02*
G01*
X14739056Y12609474D01*
G75*
G01
X1482598Y10906404D02*
G03X1482598Y10906404I-76200J0D01*
G75*
G01
X1482598Y10093604D02*
G03X1482598Y10093604I-76200J0D01*
G75*
G01
X669798Y10906404D02*
G03X669798Y10906404I-76200J0D01*
G75*
G01
X669798Y10093604D02*
G03X669798Y10093604I-76200J0D01*
G75*
G01
X1355598Y10500004D02*
G03X1355598Y10500004I-355600J0D01*
M02*
