G04 Layer: BottomSilkscreenLayer*
G04 EasyEDA v6.5.1, 2022-08-09 23:06:28*
G04 a67cddfb3fce44daa9051d46cbbcc19f,10*
G04 Gerber Generator version 0.2*
G04 Scale: 100 percent, Rotated: No, Reflected: No *
G04 Dimensions in millimeters *
G04 leading zeros omitted , absolute positions ,4 integer and 5 decimal *
%FSLAX45Y45*%
%MOMM*%

%ADD30C,0.2032*%

%LPD*%
D30*
X13900000Y8052727D02*
G01*
X13900000Y7766362D01*
X13900000Y8052727D02*
G01*
X13777272Y8052727D01*
X13736363Y8039089D01*
X13722728Y8025455D01*
X13709091Y7998180D01*
X13709091Y7970908D01*
X13722728Y7943636D01*
X13736363Y7929999D01*
X13777272Y7916362D01*
X13900000Y7916362D02*
G01*
X13777272Y7916362D01*
X13736363Y7902727D01*
X13722728Y7889090D01*
X13709091Y7861818D01*
X13709091Y7820908D01*
X13722728Y7793636D01*
X13736363Y7779999D01*
X13777272Y7766362D01*
X13900000Y7766362D01*
X13619091Y7957271D02*
G01*
X13619091Y7766362D01*
X13619091Y7875455D02*
G01*
X13605454Y7916362D01*
X13578182Y7943636D01*
X13550910Y7957271D01*
X13510000Y7957271D01*
X13420001Y7875455D02*
G01*
X13256364Y7875455D01*
X13256364Y7902727D01*
X13270001Y7929999D01*
X13283636Y7943636D01*
X13310908Y7957271D01*
X13351817Y7957271D01*
X13379091Y7943636D01*
X13406363Y7916362D01*
X13420001Y7875455D01*
X13420001Y7848180D01*
X13406363Y7807271D01*
X13379091Y7779999D01*
X13351817Y7766362D01*
X13310908Y7766362D01*
X13283636Y7779999D01*
X13256364Y7807271D01*
X13002727Y7957271D02*
G01*
X13002727Y7766362D01*
X13002727Y7916362D02*
G01*
X13029999Y7943636D01*
X13057273Y7957271D01*
X13098183Y7957271D01*
X13125455Y7943636D01*
X13152727Y7916362D01*
X13166364Y7875455D01*
X13166364Y7848180D01*
X13152727Y7807271D01*
X13125455Y7779999D01*
X13098183Y7766362D01*
X13057273Y7766362D01*
X13029999Y7779999D01*
X13002727Y7807271D01*
X12912727Y8052727D02*
G01*
X12912727Y7766362D01*
X12776362Y7957271D02*
G01*
X12912727Y7820908D01*
X12858181Y7875455D02*
G01*
X12762727Y7766362D01*
X12604546Y7957271D02*
G01*
X12631818Y7943636D01*
X12659090Y7916362D01*
X12672728Y7875455D01*
X12672728Y7848180D01*
X12659090Y7807271D01*
X12631818Y7779999D01*
X12604546Y7766362D01*
X12563637Y7766362D01*
X12536363Y7779999D01*
X12509091Y7807271D01*
X12495453Y7848180D01*
X12495453Y7875455D01*
X12509091Y7916362D01*
X12536363Y7943636D01*
X12563637Y7957271D01*
X12604546Y7957271D01*
X12405453Y7957271D02*
G01*
X12405453Y7820908D01*
X12391819Y7779999D01*
X12364544Y7766362D01*
X12323635Y7766362D01*
X12296363Y7779999D01*
X12255454Y7820908D01*
X12255454Y7957271D02*
G01*
X12255454Y7766362D01*
X12124545Y8052727D02*
G01*
X12124545Y7820908D01*
X12110910Y7779999D01*
X12083635Y7766362D01*
X12056363Y7766362D01*
X12165454Y7957271D02*
G01*
X12070001Y7957271D01*
X11647271Y8052727D02*
G01*
X11674546Y8052727D01*
X11701818Y8039089D01*
X11715455Y7998180D01*
X11715455Y7766362D01*
X11756364Y7957271D02*
G01*
X11660908Y7957271D01*
X11489090Y7957271D02*
G01*
X11516362Y7943636D01*
X11543637Y7916362D01*
X11557271Y7875455D01*
X11557271Y7848180D01*
X11543637Y7807271D01*
X11516362Y7779999D01*
X11489090Y7766362D01*
X11448181Y7766362D01*
X11420909Y7779999D01*
X11393637Y7807271D01*
X11380000Y7848180D01*
X11380000Y7875455D01*
X11393637Y7916362D01*
X11420909Y7943636D01*
X11448181Y7957271D01*
X11489090Y7957271D01*
X11290000Y7957271D02*
G01*
X11290000Y7766362D01*
X11290000Y7875455D02*
G01*
X11276363Y7916362D01*
X11249091Y7943636D01*
X11221819Y7957271D01*
X11180909Y7957271D01*
X10880910Y8052727D02*
G01*
X10880910Y7766362D01*
X10880910Y8052727D02*
G01*
X10703636Y8052727D01*
X10880910Y7916362D02*
G01*
X10771817Y7916362D01*
X10880910Y7766362D02*
G01*
X10703636Y7766362D01*
X10613636Y8052727D02*
G01*
X10504545Y7766362D01*
X10395455Y8052727D02*
G01*
X10504545Y7766362D01*
X10223637Y8052727D02*
G01*
X10250909Y8039089D01*
X10278181Y8011817D01*
X10291818Y7984545D01*
X10305455Y7943636D01*
X10305455Y7875455D01*
X10291818Y7834546D01*
X10278181Y7807271D01*
X10250909Y7779999D01*
X10223637Y7766362D01*
X10169090Y7766362D01*
X10141818Y7779999D01*
X10114546Y7807271D01*
X10100909Y7834546D01*
X10087272Y7875455D01*
X10087272Y7943636D01*
X10100909Y7984545D01*
X10114546Y8011817D01*
X10141818Y8039089D01*
X10169090Y8052727D01*
X10223637Y8052727D01*
X9792726Y7984545D02*
G01*
X9806363Y8011817D01*
X9833635Y8039089D01*
X9860909Y8052727D01*
X9915453Y8052727D01*
X9942728Y8039089D01*
X9970000Y8011817D01*
X9983637Y7984545D01*
X9997272Y7943636D01*
X9997272Y7875455D01*
X9983637Y7834546D01*
X9970000Y7807271D01*
X9942728Y7779999D01*
X9915453Y7766362D01*
X9860909Y7766362D01*
X9833635Y7779999D01*
X9806363Y7807271D01*
X9792726Y7834546D01*
X9492726Y7998180D02*
G01*
X9465454Y8011817D01*
X9424545Y8052727D01*
X9424545Y7766362D01*
X9252727Y8052727D02*
G01*
X9293636Y8039089D01*
X9320908Y7998180D01*
X9334545Y7929999D01*
X9334545Y7889090D01*
X9320908Y7820908D01*
X9293636Y7779999D01*
X9252727Y7766362D01*
X9225455Y7766362D01*
X9184546Y7779999D01*
X9157274Y7820908D01*
X9143636Y7889090D01*
X9143636Y7929999D01*
X9157274Y7998180D01*
X9184546Y8039089D01*
X9225455Y8052727D01*
X9252727Y8052727D01*
X8917271Y8052727D02*
G01*
X9053636Y7861818D01*
X8849090Y7861818D01*
X8917271Y8052727D02*
G01*
X8917271Y7766362D01*
X8759090Y7889090D02*
G01*
X8513635Y7889090D01*
X8423635Y7998180D02*
G01*
X8396363Y8011817D01*
X8355454Y8052727D01*
X8355454Y7766362D01*
X8129092Y8052727D02*
G01*
X8265454Y7861818D01*
X8060908Y7861818D01*
X8129092Y8052727D02*
G01*
X8129092Y7766362D01*
X7902727Y8052727D02*
G01*
X7943636Y8039089D01*
X7957273Y8011817D01*
X7957273Y7984545D01*
X7943636Y7957271D01*
X7916364Y7943636D01*
X7861818Y7929999D01*
X7820908Y7916362D01*
X7793636Y7889090D01*
X7779999Y7861818D01*
X7779999Y7820908D01*
X7793636Y7793636D01*
X7807271Y7779999D01*
X7848180Y7766362D01*
X7902727Y7766362D01*
X7943636Y7779999D01*
X7957273Y7793636D01*
X7970908Y7820908D01*
X7970908Y7861818D01*
X7957273Y7889090D01*
X7929999Y7916362D01*
X7889090Y7929999D01*
X7834546Y7943636D01*
X7807271Y7957271D01*
X7793636Y7984545D01*
X7793636Y8011817D01*
X7807271Y8039089D01*
X7848180Y8052727D01*
X7902727Y8052727D01*
X7689999Y7998180D02*
G01*
X7662727Y8011817D01*
X7621818Y8052727D01*
X7621818Y7766362D01*
X7327272Y7984545D02*
G01*
X7340909Y8011817D01*
X7368181Y8039089D01*
X7395453Y8052727D01*
X7450000Y8052727D01*
X7477272Y8039089D01*
X7504546Y8011817D01*
X7518181Y7984545D01*
X7531818Y7943636D01*
X7531818Y7875455D01*
X7518181Y7834546D01*
X7504546Y7807271D01*
X7477272Y7779999D01*
X7450000Y7766362D01*
X7395453Y7766362D01*
X7368181Y7779999D01*
X7340909Y7807271D01*
X7327272Y7834546D01*
X7237272Y8052727D02*
G01*
X7237272Y7766362D01*
X7237272Y7766362D02*
G01*
X7073635Y7766362D01*
X6983636Y8052727D02*
G01*
X6983636Y7766362D01*
X6983636Y8052727D02*
G01*
X6888182Y8052727D01*
X6847273Y8039089D01*
X6819999Y8011817D01*
X6806364Y7984545D01*
X6792727Y7943636D01*
X6792727Y7875455D01*
X6806364Y7834546D01*
X6819999Y7807271D01*
X6847273Y7779999D01*
X6888182Y7766362D01*
X6983636Y7766362D01*
X6702727Y8052727D02*
G01*
X6702727Y7766362D01*
X6702727Y8052727D02*
G01*
X6511818Y7766362D01*
X6511818Y8052727D02*
G01*
X6511818Y7766362D01*
X13900000Y7651127D02*
G01*
X13790909Y7364763D01*
X13681819Y7651127D02*
G01*
X13790909Y7364763D01*
X13591819Y7473853D02*
G01*
X13428182Y7473853D01*
X13428182Y7501128D01*
X13441817Y7528399D01*
X13455454Y7542037D01*
X13482726Y7555671D01*
X13523635Y7555671D01*
X13550910Y7542037D01*
X13578182Y7514762D01*
X13591819Y7473853D01*
X13591819Y7446581D01*
X13578182Y7405672D01*
X13550910Y7378400D01*
X13523635Y7364763D01*
X13482726Y7364763D01*
X13455454Y7378400D01*
X13428182Y7405672D01*
X13338182Y7555671D02*
G01*
X13338182Y7364763D01*
X13338182Y7473853D02*
G01*
X13324545Y7514762D01*
X13297273Y7542037D01*
X13270001Y7555671D01*
X13229092Y7555671D01*
X12989090Y7514762D02*
G01*
X13002727Y7542037D01*
X13043636Y7555671D01*
X13084545Y7555671D01*
X13125455Y7542037D01*
X13139089Y7514762D01*
X13125455Y7487490D01*
X13098183Y7473853D01*
X13029999Y7460218D01*
X13002727Y7446581D01*
X12989090Y7419309D01*
X12989090Y7405672D01*
X13002727Y7378400D01*
X13043636Y7364763D01*
X13084545Y7364763D01*
X13125455Y7378400D01*
X13139089Y7405672D01*
X12899090Y7651127D02*
G01*
X12885455Y7637490D01*
X12871818Y7651127D01*
X12885455Y7664762D01*
X12899090Y7651127D01*
X12885455Y7555671D02*
G01*
X12885455Y7364763D01*
X12713637Y7555671D02*
G01*
X12740909Y7542037D01*
X12768181Y7514762D01*
X12781818Y7473853D01*
X12781818Y7446581D01*
X12768181Y7405672D01*
X12740909Y7378400D01*
X12713637Y7364763D01*
X12672728Y7364763D01*
X12645453Y7378400D01*
X12618181Y7405672D01*
X12604546Y7446581D01*
X12604546Y7473853D01*
X12618181Y7514762D01*
X12645453Y7542037D01*
X12672728Y7555671D01*
X12713637Y7555671D01*
X12514544Y7555671D02*
G01*
X12514544Y7364763D01*
X12514544Y7501128D02*
G01*
X12473637Y7542037D01*
X12446363Y7555671D01*
X12405453Y7555671D01*
X12378181Y7542037D01*
X12364544Y7501128D01*
X12364544Y7364763D01*
X12064545Y7596581D02*
G01*
X12037273Y7610218D01*
X11996364Y7651127D01*
X11996364Y7364763D01*
X11892727Y7432944D02*
G01*
X11906364Y7419309D01*
X11892727Y7405672D01*
X11879089Y7419309D01*
X11892727Y7432944D01*
X11707274Y7651127D02*
G01*
X11748180Y7637490D01*
X11775455Y7596581D01*
X11789089Y7528399D01*
X11789089Y7487490D01*
X11775455Y7419309D01*
X11748180Y7378400D01*
X11707274Y7364763D01*
X11679999Y7364763D01*
X11639090Y7378400D01*
X11611818Y7419309D01*
X11598181Y7487490D01*
X11598181Y7528399D01*
X11611818Y7596581D01*
X11639090Y7637490D01*
X11679999Y7651127D01*
X11707274Y7651127D01*
M02*
